<mxfile host="app.diagrams.net" modified="2023-04-11T18:48:49.034Z" agent="Mozilla/5.0 (X11; Ubuntu; Linux x86_64; rv:109.0) Gecko/20100101 Firefox/111.0" etag="4iml53_xZXE2w-v42U5P" version="21.1.6">
  <diagram name="PÃ¡gina-1" id="cz_vGB7TLuIkOXlbYfrg">
    <mxGraphModel dx="901" dy="504" grid="1" gridSize="10" guides="1" tooltips="1" connect="1" arrows="1" fold="1" page="1" pageScale="1" pageWidth="827" pageHeight="1169" math="0" shadow="0">
      <root>
        <mxCell id="0" />
        <mxCell id="1" parent="0" />
        <mxCell id="SI-yyaDshADIb_-jPWqH-34" value="Crear evento" style="ellipse;whiteSpace=wrap;html=1;" vertex="1" parent="1">
          <mxGeometry x="354" y="20" width="120" height="80" as="geometry" />
        </mxCell>
        <mxCell id="SI-yyaDshADIb_-jPWqH-37" style="edgeStyle=orthogonalEdgeStyle;rounded=0;orthogonalLoop=1;jettySize=auto;html=1;exitX=0.5;exitY=0;exitDx=0;exitDy=0;exitPerimeter=0;entryX=0;entryY=0.5;entryDx=0;entryDy=0;" edge="1" parent="1" source="SI-yyaDshADIb_-jPWqH-35" target="SI-yyaDshADIb_-jPWqH-34">
          <mxGeometry relative="1" as="geometry" />
        </mxCell>
        <mxCell id="SI-yyaDshADIb_-jPWqH-41" style="edgeStyle=orthogonalEdgeStyle;rounded=0;orthogonalLoop=1;jettySize=auto;html=1;exitX=0.5;exitY=0.5;exitDx=0;exitDy=0;exitPerimeter=0;entryX=0;entryY=0.5;entryDx=0;entryDy=0;" edge="1" parent="1" source="SI-yyaDshADIb_-jPWqH-35" target="SI-yyaDshADIb_-jPWqH-40">
          <mxGeometry relative="1" as="geometry" />
        </mxCell>
        <mxCell id="SI-yyaDshADIb_-jPWqH-50" style="edgeStyle=orthogonalEdgeStyle;rounded=0;orthogonalLoop=1;jettySize=auto;html=1;exitX=0.5;exitY=0.5;exitDx=0;exitDy=0;exitPerimeter=0;entryX=0;entryY=0.5;entryDx=0;entryDy=0;" edge="1" parent="1" source="SI-yyaDshADIb_-jPWqH-35" target="SI-yyaDshADIb_-jPWqH-44">
          <mxGeometry relative="1" as="geometry" />
        </mxCell>
        <mxCell id="SI-yyaDshADIb_-jPWqH-51" style="edgeStyle=orthogonalEdgeStyle;rounded=0;orthogonalLoop=1;jettySize=auto;html=1;exitX=0.5;exitY=0.5;exitDx=0;exitDy=0;exitPerimeter=0;entryX=0;entryY=0.5;entryDx=0;entryDy=0;" edge="1" parent="1" source="SI-yyaDshADIb_-jPWqH-35" target="SI-yyaDshADIb_-jPWqH-46">
          <mxGeometry relative="1" as="geometry">
            <Array as="points">
              <mxPoint x="260" y="220" />
              <mxPoint x="260" y="510" />
            </Array>
          </mxGeometry>
        </mxCell>
        <mxCell id="SI-yyaDshADIb_-jPWqH-35" value="Investigador" style="shape=umlActor;verticalLabelPosition=bottom;verticalAlign=top;html=1;outlineConnect=0;" vertex="1" parent="1">
          <mxGeometry x="130" y="190" width="30" height="60" as="geometry" />
        </mxCell>
        <mxCell id="SI-yyaDshADIb_-jPWqH-39" style="edgeStyle=orthogonalEdgeStyle;rounded=0;orthogonalLoop=1;jettySize=auto;html=1;exitX=0.5;exitY=0;exitDx=0;exitDy=0;exitPerimeter=0;" edge="1" parent="1" source="SI-yyaDshADIb_-jPWqH-36" target="SI-yyaDshADIb_-jPWqH-38">
          <mxGeometry relative="1" as="geometry" />
        </mxCell>
        <mxCell id="SI-yyaDshADIb_-jPWqH-43" style="edgeStyle=orthogonalEdgeStyle;rounded=0;orthogonalLoop=1;jettySize=auto;html=1;exitX=0.5;exitY=0.5;exitDx=0;exitDy=0;exitPerimeter=0;entryX=1;entryY=0.5;entryDx=0;entryDy=0;" edge="1" parent="1" source="SI-yyaDshADIb_-jPWqH-36" target="SI-yyaDshADIb_-jPWqH-42">
          <mxGeometry relative="1" as="geometry" />
        </mxCell>
        <mxCell id="SI-yyaDshADIb_-jPWqH-53" style="edgeStyle=orthogonalEdgeStyle;rounded=0;orthogonalLoop=1;jettySize=auto;html=1;exitX=0.5;exitY=0.5;exitDx=0;exitDy=0;exitPerimeter=0;entryX=1;entryY=0.5;entryDx=0;entryDy=0;" edge="1" parent="1" source="SI-yyaDshADIb_-jPWqH-36" target="SI-yyaDshADIb_-jPWqH-52">
          <mxGeometry relative="1" as="geometry" />
        </mxCell>
        <mxCell id="SI-yyaDshADIb_-jPWqH-36" value="&lt;div&gt;Usuario&lt;/div&gt;" style="shape=umlActor;verticalLabelPosition=bottom;verticalAlign=top;html=1;outlineConnect=0;" vertex="1" parent="1">
          <mxGeometry x="660" y="190" width="30" height="60" as="geometry" />
        </mxCell>
        <mxCell id="SI-yyaDshADIb_-jPWqH-38" value="Unirse a evento" style="ellipse;whiteSpace=wrap;html=1;" vertex="1" parent="1">
          <mxGeometry x="354" y="110" width="120" height="80" as="geometry" />
        </mxCell>
        <mxCell id="SI-yyaDshADIb_-jPWqH-40" value="Registrarse en evento " style="ellipse;whiteSpace=wrap;html=1;" vertex="1" parent="1">
          <mxGeometry x="354" y="200" width="120" height="80" as="geometry" />
        </mxCell>
        <mxCell id="SI-yyaDshADIb_-jPWqH-42" value="Log In mediante terceros" style="ellipse;whiteSpace=wrap;html=1;" vertex="1" parent="1">
          <mxGeometry x="354" y="290" width="120" height="80" as="geometry" />
        </mxCell>
        <mxCell id="SI-yyaDshADIb_-jPWqH-44" value="Registro de participacon de usuarios del evento" style="ellipse;whiteSpace=wrap;html=1;" vertex="1" parent="1">
          <mxGeometry x="360" y="380" width="120" height="80" as="geometry" />
        </mxCell>
        <mxCell id="SI-yyaDshADIb_-jPWqH-46" value="Registro de participacion de eventos del investigador" style="ellipse;whiteSpace=wrap;html=1;" vertex="1" parent="1">
          <mxGeometry x="360" y="470" width="120" height="80" as="geometry" />
        </mxCell>
        <mxCell id="SI-yyaDshADIb_-jPWqH-52" value="Busqueda segun tag" style="ellipse;whiteSpace=wrap;html=1;" vertex="1" parent="1">
          <mxGeometry x="360" y="560" width="120" height="80" as="geometry" />
        </mxCell>
        <mxCell id="SI-yyaDshADIb_-jPWqH-55" value="" style="rounded=0;whiteSpace=wrap;html=1;glass=0;fillColor=none;dashed=1;" vertex="1" parent="1">
          <mxGeometry x="294" width="246" height="650" as="geometry" />
        </mxCell>
      </root>
    </mxGraphModel>
  </diagram>
</mxfile>
